<svg width="28" height="31" viewBox="0 0 28 31" fill="none" xmlns="http://www.w3.org/2000/svg">
<path d="M1 10.5H26.3333M20 1V4.16667M7.33333 1V4.16667M2.58333 4.16667H24.75C25.6244 4.16667 26.3333 4.87555 26.3333 5.75V27.9167C26.3333 28.7911 25.6244 29.5 24.75 29.5H2.58333C1.70888 29.5 1 28.7911 1 27.9167V5.75C1 4.87555 1.70888 4.16667 2.58333 4.16667ZM20 23.1667H20.0032V23.1698H20V23.1667ZM13.6667 23.1667H13.6698V23.1698H13.6667V23.1667ZM7.33333 23.1667H7.3365V23.1698H7.33333V23.1667ZM20 16.8333H20.0032V16.8365H20V16.8333ZM13.6667 16.8333H13.6698V16.8365H13.6667V16.8333ZM7.33333 16.8333H7.3365V16.8365H7.33333V16.8333Z" stroke="white" stroke-width="2" stroke-linecap="round" stroke-linejoin="round"/>
</svg>
