<svg width="26" height="32" viewBox="0 0 26 32" fill="none" xmlns="http://www.w3.org/2000/svg">
<path d="M13 14.4167C14.7489 14.4167 16.1667 12.9989 16.1667 11.25C16.1667 9.5011 14.7489 8.08333 13 8.08333C11.2511 8.08333 9.83333 9.5011 9.83333 11.25C9.83333 12.9989 11.2511 14.4167 13 14.4167Z" stroke="white" stroke-width="2" stroke-linecap="round" stroke-linejoin="round"/>
<path d="M13 30.25C13 30.25 24.0833 22.5769 24.0833 12.7115C24.0833 9.80436 22.9156 7.01625 20.8371 4.96056C18.7586 2.90487 15.9395 1.75 13 1.75C10.0605 1.75 7.24143 2.90487 5.1629 4.96056C3.08437 7.01625 1.91666 9.80436 1.91666 12.7115C1.91666 22.5769 13 30.25 13 30.25Z" stroke="white" stroke-width="2" stroke-linecap="round" stroke-linejoin="round"/>
</svg>
