<svg width="32" height="32" viewBox="0 0 32 32" fill="none" xmlns="http://www.w3.org/2000/svg">
<path d="M12.0462 3.7406L11.1178 4.11199L11.1178 4.11199L12.0462 3.7406ZM13.7155 7.91373L14.644 7.54234L14.644 7.54234L13.7155 7.91373ZM13.208 11.117L13.9762 11.7572L13.9762 11.7572L13.208 11.117ZM12.3096 12.1951L13.0779 12.8353L13.0779 12.8353L12.3096 12.1951ZM12.5032 16.4615L11.7961 17.1686L11.7961 17.1686L12.5032 16.4615ZM15.5385 19.4968L16.2456 18.7897L16.2456 18.7897L15.5385 19.4968ZM19.8049 19.6904L19.1647 18.9221L19.1647 18.9221L19.8049 19.6904ZM20.883 18.792L21.5231 19.5602L21.5231 19.5602L20.883 18.792ZM24.0863 18.2845L24.4577 17.356L24.4577 17.356L24.0863 18.2845ZM28.2594 19.9538L28.6308 19.0253L28.6308 19.0253L28.2594 19.9538ZM4.75 2.75H9.10606V0.75H4.75V2.75ZM11.1178 4.11199L12.787 8.28512L14.644 7.54234L12.9747 3.36921L11.1178 4.11199ZM12.4398 10.4769L11.5414 11.5549L13.0779 12.8353L13.9762 11.7572L12.4398 10.4769ZM11.7961 17.1686L14.8314 20.2039L16.2456 18.7897L13.2103 15.7544L11.7961 17.1686ZM20.4451 20.4586L21.5231 19.5602L20.2428 18.0238L19.1647 18.9221L20.4451 20.4586ZM23.7149 19.213L27.888 20.8822L28.6308 19.0253L24.4577 17.356L23.7149 19.213ZM29.25 22.8939V27.25H31.25V22.8939H29.25ZM27.25 29.25C13.719 29.25 2.75 18.281 2.75 4.75H0.75C0.75 19.3855 12.6145 31.25 27.25 31.25V29.25ZM29.25 27.25C29.25 28.3546 28.3546 29.25 27.25 29.25V31.25C29.4591 31.25 31.25 29.4591 31.25 27.25H29.25ZM27.888 20.8822C28.7106 21.2113 29.25 22.008 29.25 22.8939H31.25C31.25 21.1902 30.2127 19.6581 28.6308 19.0253L27.888 20.8822ZM21.5231 19.5602C22.1345 19.0507 22.976 18.9174 23.7149 19.213L24.4577 17.356C23.0367 16.7876 21.4185 17.044 20.2428 18.0238L21.5231 19.5602ZM14.8314 20.2039C16.3552 21.7278 18.7896 21.8382 20.4451 20.4586L19.1647 18.9221C18.3039 19.6395 17.038 19.5821 16.2456 18.7897L14.8314 20.2039ZM11.5414 11.5549C10.1618 13.2104 10.2722 15.6448 11.7961 17.1686L13.2103 15.7544C12.4179 14.962 12.3605 13.6961 13.0779 12.8353L11.5414 11.5549ZM12.787 8.28512C13.0826 9.02402 12.9493 9.86549 12.4398 10.4769L13.9762 11.7572C14.956 10.5815 15.2124 8.96331 14.644 7.54234L12.787 8.28512ZM9.10606 2.75C9.99202 2.75 10.7887 3.28939 11.1178 4.11199L12.9747 3.36921C12.342 1.7873 10.8098 0.75 9.10606 0.75V2.75ZM4.75 0.75C2.54086 0.75 0.75 2.54086 0.75 4.75H2.75C2.75 3.64543 3.64543 2.75 4.75 2.75V0.75Z" fill="white"/>
</svg>
