<svg xmlns="http://www.w3.org/2000/svg" xmlns:xlink="http://www.w3.org/1999/xlink" width="793.701" height="1122.52" viewBox="0 0 210 297">
    <style><![CDATA[.B{opacity:.948}.C{color-interpolation-filters:sRGB}.D{opacity:.893}.E{fill-rule:evenodd}]]></style>
        <defs>
        <linearGradient xlink:href="#B" id="A" x1="70.89" y1="32.739" x2="75.998" y2="36.486"/>
        <linearGradient id="B" gradientUnits="userSpaceOnUse">
            <stop offset="0" stop-color="#d4008b"/>
            <stop offset=".815" stop-color="#3f0052" stop-opacity=".686"/>
            <stop offset=".908" stop-color="#3f0054" stop-opacity=".515"/>
            <stop offset="1" stop-color="#3f0056" stop-opacity="0"/>
        </linearGradient>
        <filter id="C" x="-.063" width="1.127" y="-.066" height="1.132" class="C">
            <feGaussianBlur stdDeviation=".145"/>
        </filter>
        <linearGradient xlink:href="#B" id="D" x1="137.841" y1="38.352" x2="142.949" y2="42.098"/>
        <linearGradient xlink:href="#B" id="E" x1="101.901" y1="-72.549" x2="107.043" y2="-68.778"/>
        <linearGradient xlink:href="#B" id="F" x1="85.168" y1="-68.728" x2="87.62" y2="-66.93"/>
        <linearGradient xlink:href="#B" id="G" x1="124.567" y1="-74.223" x2="128.021" y2="-71.691"/>
        <linearGradient xlink:href="#B" id="H" x1="77.209" y1="-57.702" x2="80.662" y2="-55.169"/>
        <filter id="I" x="-.037" width="1.073" y="-.038" height="1.076" class="C">
            <feGaussianBlur stdDeviation=".056"/>
        </filter>
        <linearGradient xlink:href="#B" id="J" x1="98.74" y1="-46.243" x2="102.193" y2="-43.711"/>
        <linearGradient xlink:href="#B" id="K" x1="106.589" y1="43.756" x2="119.251" y2="53.394"/>
        <filter id="L" x="-.055" width="1.11" y="-.055" height="1.11" class="C">
            <feGaussianBlur stdDeviation=".313"/>
        </filter>
        <linearGradient xlink:href="#N" id="M" x1="130.996" y1="-20.419" x2="198.652" y2="-20.419"/>
        <linearGradient id="N" gradientUnits="userSpaceOnUse">
            <stop offset="0" stop-color="#d4008b"/>
            <stop offset="1" stop-color="#3f0056"/>
        </linearGradient>
        <linearGradient xlink:href="#N" id="O" x1="42.934" y1="-31.541" x2="98.255" y2="-31.541"/>
        <linearGradient xlink:href="#N" id="P" x1="11.699" y1="65.468" x2="-32.612" y2="63.643"/>
        <linearGradient xlink:href="#N" id="Q" x1="5.354" y1="3.47" x2="44.394" y2="3.47"/>
        <linearGradient xlink:href="#N" id="R" x1="108.465" y1="-11.573" x2="129.871" y2="-11.573"/>
        <linearGradient xlink:href="#N" id="S" x1="43.067" y1="-31.541" x2="98.123" y2="-31.541"/>
        <filter id="T" x="-.154" width="1.307" y="-.154" height="1.307" class="C">
            <feGaussianBlur stdDeviation=".871"/>
        </filter>
        <linearGradient xlink:href="#B" id="U" x1="105.755" y1="25.492" x2="118.417" y2="35.13"/>
        <filter id="V" x="-.095" width="1.19" y="-.095" height="1.19" class="C">
            <feGaussianBlur stdDeviation=".537"/>
        </filter>
        <linearGradient id="W" x1="130.864" y1="-20.418" x2="198.784" y2="-20.418" gradientUnits="userSpaceOnUse">
            <stop offset="0" stop-color="#81007a" stop-opacity=".642"/>
            <stop offset=".815" stop-color="#3f0052" stop-opacity=".686"/>
            <stop offset=".908" stop-color="#3f0054" stop-opacity=".515"/>
            <stop offset="1" stop-color="#3f0056" stop-opacity="0"/>
        </linearGradient>
        <path id="X" d="M153.546-9.692c.234 1.36-.244 2.82-1.235 3.78a4.33 4.33 0 0 1-3.819 1.108 4.33 4.33 0 0 1-3.066-2.532 4.33 4.33 0 0 1 .369-3.959c.278-.425.63-.796.935-1.203.522-.694.907-1.496 1.078-2.348s.123-1.75-.18-2.565-.865-1.536-1.604-1.992-1.654-.633-2.5-.446c-.762.17-1.43.6-2.138.935a7.43 7.43 0 0 1-4.081.607 7.37 7.37 0 0 1-3.765-1.687c-1.06-.906-1.85-2.122-2.247-3.458a7.26 7.26 0 0 1 .006-4.124 7.21 7.21 0 0 1 2.271-3.441c1.07-.893 2.41-1.46 3.795-1.61s2.815.126 4.047.777a7.05 7.05 0 0 1 2.915 2.912l.802 1.604a4.95 4.95 0 0 0 1.844 1.755c.753.413 1.61.63 2.468.64 1.717.02 3.403-.814 4.508-2.128.287-.34.536-.71.802-1.07 2.406-3.243 6.177-5.418 10.178-5.958s8.184.54 11.47 2.885c.705.503 1.374 1.063 2.138 1.47 1.27.676 2.785.893 4.185.562s2.668-1.214 3.432-2.433c.244-.39.436-.807.668-1.203 1.063-1.8 3-3.088 5.1-3.28a6.34 6.34 0 0 1 3.078.485c.964.416 1.82 1.082 2.452 1.92s1.04 1.844 1.162 2.887-.048 2.118-.5 3.07a5.6 5.6 0 0 1-2.039 2.344 5.44 5.44 0 0 1-2.983.86c-.807-.01-1.6-.202-2.405-.267-1.757-.142-3.554.347-5.012 1.338a8.27 8.27 0 0 0-3.14 4.141c-.315.92-.468 1.892-.802 2.806-.617 1.7-1.855 3.134-3.395 4.065s-3.37 1.356-5.166 1.27-3.56-.668-5.092-1.612-2.837-2.24-3.853-3.725c-.398-.582-.754-1.194-1.203-1.737a6.41 6.41 0 0 0-3.459-2.15 6.22 6.22 0 0 0-4.045.432c-1.248.594-2.282 1.63-2.863 2.883a5.88 5.88 0 0 0-.323 4.046c.326 1.14 1.002 2.172 1.203 3.34z"/>
        <path id="Y" d="M-1.637 53.572a5.6 5.6 0 0 1 1.652-2.864A5.6 5.6 0 0 1 3 49.289a5.6 5.6 0 0 1 3.264.527c1.002.5 1.846 1.307 2.388 2.286a5.6 5.6 0 0 1 .696 2.759 5.61 5.61 0 0 1-.756 2.744c-.482.83-1.182 1.53-2 2.015s-1.782.75-2.74.767c-.755.012-1.504-.128-2.258-.148-.377-.01-.757.01-1.125.092s-.725.23-1.026.457c-.398.302-.685.737-.85 1.21s-.212.98-.185 1.478c.054.998.395 1.954.633 2.925.767 3.127.445 6.5-.898 9.436s-3.697 5.376-6.567 6.835-6.236 1.92-9.392 1.283a14.58 14.58 0 0 1-8.165-4.817 14.6 14.6 0 0 1-3.427-8.839c-.116-3.217.88-6.464 2.777-9.064s4.687-4.537 7.786-5.41a14.65 14.65 0 0 1 9.465.553c1.168.48 2.29 1.12 3.53 1.35.62.116 1.27.125 1.878-.044s1.176-.523 1.54-1.04c.307-.437.457-.965.55-1.49l.252-1.582z"/>
        <path id="Z" d="M54.39-13.434c-.868.757-1.935 1.284-3.063 1.518a6.85 6.85 0 0 1-3.415-.171c-1.1-.344-2.11-.97-2.908-1.8s-1.385-1.862-1.692-2.973c-.615-2.22-.048-4.727 1.444-6.483s3.863-2.716 6.16-2.52c.535.046 1.067.15 1.604.134.817-.026 1.6-.34 2.284-.802s1.237-1.072 1.73-1.725c.984-1.307 1.704-2.81 2.803-4.02 1.087-1.2 2.514-2.068 4.042-2.602s3.158-.743 4.778-.738h.535c1.05-.02 2.097-.28 3.027-.768a6.25 6.25 0 0 0 2.315-2.088c.575-.88.913-1.915.944-2.965s-.246-2.1-.807-2.998c-.205-.324-.445-.624-.668-.935-1.156-1.6-1.867-3.538-2.02-5.514s.256-3.994 1.177-5.75 2.353-3.24 4.08-4.213 3.743-1.43 5.72-1.28a9.94 9.94 0 0 1 5.449 2.146c1.544 1.243 2.695 2.97 3.236 4.876a9.5 9.5 0 0 1-.222 5.844c-.688 1.86-1.988 3.487-3.655 4.56l-1.07.668c-.97.666-1.745 1.61-2.22 2.684s-.655 2.28-.522 3.448a6.93 6.93 0 0 0 1.267 3.252 7.2 7.2 0 0 0 2.679 2.242l1.203.535c1.6.758 2.973 2.046 3.783 3.63s1.05 3.46.627 5.19l-.267.935c-.543 1.842-.85 3.8-.474 5.684.19.94.55 1.853 1.104 2.638s1.3 1.44 2.176 1.835c.4.18.826.31 1.203.535.736.442 1.225 1.247 1.342 2.098s-.12 1.732-.595 2.448-1.17 1.27-1.95 1.633-1.633.543-2.5.595c-1.714.104-3.412-.3-5.102-.6s-3.453-.506-5.104-.037c-1.07.303-2.04.877-2.96 1.5L77.12-1.936c-.967.547-2.033.965-3.143 1.008-.555.022-1.116-.05-1.638-.24s-1.005-.496-1.38-.907c-.447-.49-.727-1.118-.867-1.767s-.144-1.32-.087-1.982c.114-1.323.47-2.624.47-3.95-.002-1.64-.57-3.268-1.564-4.572a8.18 8.18 0 0 0-3.959-2.79 8.8 8.8 0 0 0-4.851-.145c-1.59.402-3.06 1.24-4.242 2.378l-1.47 1.47z"/>
    </defs>
    <use xlink:href="#X" transform="matrix(1.006623 0 0 -1.006622 -58.946442 32.057431)" opacity=".953" fill="url(#W)"/>
    <use xlink:href="#Y" transform="matrix(-.116782 .10344 .10344 .116782 103.79386 61.646951)" fill="url(#P)"/>
    <g class="E">
        <circle transform="matrix(1.006623 0 0 -1.006622 .812188 107.92658)" r="6.804" cy="30.783" cx="111.046" fill="url(#U)" paint-order="stroke fill markers" filter="url(#V)"/>
        <circle transform="matrix(1.25768 0 0 -1.211839 -8.138282 104.39071)" cx="111.881" cy="49.048" r="6.804" opacity=".733" fill="url(#K)" paint-order="stroke fill markers" filter="url(#T)"/>
    </g>
    <use xlink:href="#Z" transform="matrix(.566823 0 0 -.566823 47.814397 42.734761)" fill="url(#S)" class="D"/>
    <path transform="matrix(1.380817 0 0 -1.380817 -53.733662 42.710771)" d="M116.795-8.972a3.66 3.66 0 0 0-.882 3.041 3.67 3.67 0 0 0 1.857 2.565c.964.515 2.165.56 3.165.118s1.777-1.358 2.048-2.417c.192-.746.14-1.544-.085-2.28s-.62-1.415-1.096-2.02c-.225-.286-.474-.562-.614-.898a1.59 1.59 0 0 1-.101-.877c.05-.294.19-.572.394-.788a1.47 1.47 0 0 1 .771-.426c.292-.058.603-.02.873.106.115.054.22.124.33.19a4.23 4.23 0 0 0 2.36.583c.82-.042 1.628-.334 2.284-.828a4.14 4.14 0 0 0 1.424-1.968 4.1 4.1 0 0 0 .057-2.428c-.227-.8-.703-1.507-1.343-2.022s-1.443-.826-2.264-.875-1.655.167-2.348.61-1.242 1.107-1.54 1.873l-.283.803c-.177.438-.447.84-.805 1.15s-.806.517-1.276.563-.96-.076-1.336-.36-.63-.737-.646-1.21v-.283a1.94 1.94 0 0 0-.327-1.029c-.202-.304-.487-.55-.814-.714-.652-.327-1.452-.308-2.117-.01s-1.196.862-1.518 1.516-.446 1.396-.42 2.125c.004.126.013.253 0 .378-.03.3-.183.58-.39.798s-.47.38-.742.51c-.545.258-1.15.395-1.655.724-.37.24-.673.58-.874.972a2.6 2.6 0 0 0-.282 1.277 2.65 2.65 0 0 0 .373 1.254c.226.378.548.698.926.925.756.452 1.735.503 2.54.144s1.418-1.114 1.618-1.972l.094-.425a1.81 1.81 0 0 1 .873-1.097c.423-.227.945-.266 1.394-.097s.818.547.966 1.003.072.983-.2 1.372c-.11.154-.25.285-.378.425z" opacity=".655" fill="url(#R)"/>
    <path transform="matrix(.00463 -.216456 -.216456 -.00463 123.01988 57.272221)" d="M33.275-9.692a5.6 5.6 0 0 1 1.652-2.864 5.6 5.6 0 0 1 6.25-.892c1.002.5 1.846 1.307 2.388 2.286a5.6 5.6 0 0 1 .696 2.759 5.61 5.61 0 0 1-.756 2.744c-.482.83-1.182 1.53-2 2.015s-1.782.75-2.74.767c-.755.012-1.504-.128-2.258-.148-.377-.01-.757.01-1.125.092s-.725.23-1.026.457c-.398.302-.685.737-.85 1.21s-.212.98-.185 1.478c.054.998.395 1.954.633 2.925.767 3.127.445 6.5-.898 9.436s-3.697 5.376-6.567 6.835-6.236 1.92-9.392 1.283a14.58 14.58 0 0 1-8.165-4.817 14.6 14.6 0 0 1-3.427-8.839C5.38 3.818 6.374.57 8.273-2.03s4.687-4.537 7.786-5.41a14.65 14.65 0 0 1 9.465.553c1.168.48 2.29 1.12 3.53 1.35.62.116 1.27.125 1.878-.044s1.176-.523 1.54-1.04c.307-.437.457-.965.55-1.49l.252-1.582z" fill="url(#Q)"/>
    <use xlink:href="#Y" transform="matrix(-.194152 .095812 .095812 .194152 73.023577 35.217451)" fill="url(#P)"/>
    <g stroke-width=".265" fill="none"><use xlink:href="#Z" transform="matrix(.538503 .176925 .176925 -.538503 44.848017 33.509511)" stroke="url(#O)" class="D"/>
        <use xlink:href="#Z" transform="matrix(-.553386 .122688 .122688 .553386 171.65903 62.007031)" stroke="url(#O)" class="D"/>
        <use xlink:href="#X" transform="matrix(.588095 .157009 -.157009 .588095 3.241619 53.473241)" opacity=".79" stroke="url(#M)"/>
    </g>
    <g class="E">
        <circle transform="matrix(.776266 0 0 -.747972 -12.39474 79.883481)" cx="111.881" cy="49.048" r="6.804" opacity=".733" fill="url(#K)" paint-order="stroke fill markers" filter="url(#L)"/>
        <ellipse transform="scale(1 -1)" ry="1.788" rx="1.855" cy="-44.853" cx="100.183" fill="url(#J)" paint-order="stroke fill markers" class="B"/>
        <ellipse transform="matrix(1 0 0 -1 3.101779 12.889611)" cx="78.652" cy="-56.311" rx="1.855" ry="1.788" fill="url(#H)" paint-order="stroke fill markers" filter="url(#I)" class="B"/>
        <g transform="scale(1 -1)">
            <ellipse ry="1.788" rx="1.855" cy="-72.833" cx="126.011" fill="url(#G)" paint-order="stroke fill markers" class="B"/>
            <ellipse ry="1.269" rx="1.317" cy="-67.741" cx="86.193" fill="url(#F)" paint-order="stroke fill markers" class="B"/>
            <ellipse ry="2.662" rx="2.763" cy="-70.479" cx="104.05" fill="url(#E)" paint-order="stroke fill markers" class="B"/>
        </g>
        <ellipse transform="matrix(1.006623 0 0 -1.006622 .812188 107.92658)" cx="139.976" cy="40.409" rx="2.745" ry="2.645" fill="url(#D)" paint-order="stroke fill markers" filter="url(#C)" class="B"/>
        <ellipse transform="matrix(1.051575 0 0 -1.051575 -2.196921 108.68362)" ry="2.645" rx="2.745" cy="34.796" cx="73.025" fill="url(#A)" paint-order="stroke fill markers" filter="url(#C)" class="B"/>
        <path d="M76.092 50.423V48.87h-8.308v8.7c0 5.933 2.978 7.83 7.836 10.433l.473.253v-1.76l-.058-.03c-4.41-2.376-6.7-3.85-6.7-8.895v-7.146h6.768" fill="#fff"/>
    </g>
    <text xml:space="preserve" x="100.112" y="61.939" transform="scale(1.0001945 .99980554)" font-weight="300" font-size="11.118" font-family="Soleto" letter-spacing="0" word-spacing="0" fill="#fff">
        <tspan x="100.112" y="61.939">HÄLSAN</tspan>
    </text>
    <path d="M73.718 61.925v-7.913h4.748v1.583H75.3v1.583h1.583v1.583H75.3v1.583h3.165v1.583h-4.748m6.333-.002v-7.913h1.583v6.33h2.374v1.583zm5.537 0v-7.913h4.748v1.583H87.17v1.583h1.583v1.583H87.17v1.583h3.165v1.583h-4.352m5.935-7.915H93.5l1.583 5.54 1.583-5.54h1.583l-2.374 7.913H94.3z" fill="#fff"/>
</svg>