<svg xmlns="http://www.w3.org/2000/svg" xmlns:xlink="http://www.w3.org/1999/xlink" viewBox="0 0 94.1 58.52">
  <defs>
    <style type="text/css">
      @font-face {
      font-family: Soleto;
      src: url('../Fonts/soleto/soleto-light-webfont.woff2') format('woff2'),
      url('../Fonts/soleto/soleto-light-webfont.woff') format('woff');
      font-weight: 300;
      font-style: normal;
      }
    </style>
    <linearGradient id="z" x1="70.89" x2="76" y1="32.74" y2="36.49" xlink:href="#a"/>
    <linearGradient id="a" gradientUnits="userSpaceOnUse">
      <stop offset="0" stop-color="#d4008b"/>
      <stop offset=".81" stop-color="#3f0052" stop-opacity=".69"/>
      <stop offset=".91" stop-color="#3f0054" stop-opacity=".52"/>
      <stop offset="1" stop-color="#3f0056" stop-opacity="0"/>
    </linearGradient>
    <linearGradient id="x" x1="137.84" x2="142.95" y1="38.35" y2="42.1" xlink:href="#a"/>
    <linearGradient id="w" x1="101.9" x2="107.04" y1="-72.55" y2="-68.78" xlink:href="#a"/>
    <linearGradient id="v" x1="85.17" x2="87.62" y1="-68.73" y2="-66.93" xlink:href="#a"/>
    <linearGradient id="u" x1="124.57" x2="128.02" y1="-74.22" y2="-71.69" xlink:href="#a"/>
    <linearGradient id="s" x1="77.21" x2="80.66" y1="-57.7" y2="-55.17" xlink:href="#a"/>
    <linearGradient id="r" x1="98.74" x2="102.19" y1="-46.24" y2="-43.71" xlink:href="#a"/>
    <linearGradient id="i" x1="106.59" x2="119.25" y1="43.76" y2="53.39" xlink:href="#a"/>
    <linearGradient id="p" x1="131" x2="198.65" y1="-20.42" y2="-20.42" xlink:href="#b"/>
    <linearGradient id="b" gradientUnits="userSpaceOnUse">
      <stop offset="0" stop-color="#d4008b"/>
      <stop offset="1" stop-color="#3f0056"/>
    </linearGradient>
    <linearGradient id="n" x1="5.35" x2="44.39" y1="3.47" y2="3.47" gradientTransform="scale(.2165 -.2165) rotate(88.77 211.83 93.62)" xlink:href="#b"/>
    <linearGradient id="m" x1="108.47" x2="129.87" y1="-11.57" y2="-11.57" gradientTransform="matrix(1.3808 0 0 -1.3808 -111.6 11.45)" xlink:href="#b"/>
    <linearGradient id="k" x1="43.07" x2="98.12" y1="-31.54" y2="-31.54" xlink:href="#b"/>
    <linearGradient id="g" x1="105.75" x2="118.42" y1="25.49" y2="35.13" xlink:href="#a"/>
    <linearGradient id="c" x1="130.86" x2="198.78" y1="-20.42" y2="-20.42" gradientUnits="userSpaceOnUse">
      <stop offset="0" stop-color="#81007a" stop-opacity=".64"/>
      <stop offset=".81" stop-color="#3f0052" stop-opacity=".69"/>
      <stop offset=".91" stop-color="#3f0054" stop-opacity=".52"/>
      <stop offset="1" stop-color="#3f0056" stop-opacity="0"/>
    </linearGradient>
    <linearGradient id="e" x1="11.7" x2="-32.61" y1="65.47" y2="63.64" xlink:href="#b"/>
    <linearGradient id="o" x1="42.93" x2="98.25" y1="-31.54" y2="-31.54" xlink:href="#b"/>
    <filter id="y" width="1.13" height="1.13" x="-.06" y="-.07" class="C">
      <feGaussianBlur stdDeviation=".14"/>
    </filter>
    <filter id="t" width="1.07" height="1.08" x="-.04" y="-.04" class="C">
      <feGaussianBlur stdDeviation=".06"/>
    </filter>
    <filter id="q" width="1.11" height="1.11" x="-.06" y="-.06" class="C">
      <feGaussianBlur stdDeviation=".31"/>
    </filter>
    <filter id="j" width="1.31" height="1.31" x="-.15" y="-.15" class="C">
      <feGaussianBlur stdDeviation=".87"/>
    </filter>
    <filter id="h" width="1.19" height="1.19" class="C">
      <feGaussianBlur stdDeviation=".54"/>
    </filter>
    <path id="d" d="M153.55-9.7a4.33 4.33 0 01-1.24 3.79 4.33 4.33 0 01-3.82 1.1 4.33 4.33 0 01-3.06-2.53 4.33 4.33 0 01.36-3.96c.28-.42.63-.8.94-1.2.52-.7.9-1.5 1.08-2.35s.12-1.75-.18-2.56-.87-1.54-1.6-2-1.66-.63-2.5-.44c-.77.17-1.44.6-2.14.94a7.43 7.43 0 01-4.09.6 7.37 7.37 0 01-3.76-1.68 7.32 7.32 0 01-2.25-3.46 7.26 7.26 0 010-4.13 7.21 7.21 0 012.28-3.44 7.17 7.17 0 017.84-.83 7.05 7.05 0 012.92 2.91l.8 1.6a4.95 4.95 0 001.84 1.76c.76.41 1.61.63 2.47.64 1.72.02 3.4-.81 4.5-2.13.3-.34.54-.7.81-1.07 2.4-3.24 6.18-5.42 10.18-5.96s8.18.54 11.47 2.89c.7.5 1.37 1.06 2.14 1.47 1.27.68 2.78.9 4.18.56s2.67-1.21 3.43-2.43c.25-.4.44-.8.67-1.2 1.06-1.8 3-3.1 5.1-3.28a6.34 6.34 0 013.08.48 6 6 0 013.61 4.8 5.66 5.66 0 01-.5 3.08 5.6 5.6 0 01-2.04 2.34 5.44 5.44 0 01-2.98.86c-.8 0-1.6-.2-2.4-.27a7.87 7.87 0 00-5.02 1.34 8.27 8.27 0 00-3.14 4.14c-.31.92-.46 1.9-.8 2.81-.61 1.7-1.85 3.13-3.4 4.07s-3.36 1.35-5.16 1.26-3.56-.66-5.09-1.6-2.84-2.25-3.85-3.73c-.4-.58-.76-1.2-1.2-1.74a6.41 6.41 0 00-3.47-2.15 6.22 6.22 0 00-4.04.43 6.04 6.04 0 00-2.86 2.89 5.88 5.88 0 00-.33 4.04c.33 1.14 1 2.17 1.2 3.34z"/>
    <path id="f" d="M-1.64 53.57a5.6 5.6 0 011.65-2.86A5.6 5.6 0 013 49.29a5.6 5.6 0 013.26.53c1 .5 1.85 1.3 2.4 2.28a5.6 5.6 0 01.69 2.76 5.61 5.61 0 01-.76 2.75 5.58 5.58 0 01-4.74 2.78c-.75 0-1.5-.13-2.26-.15-.37-.01-.75 0-1.12.1s-.73.22-1.03.45c-.4.3-.68.74-.85 1.2s-.2.99-.18 1.49c.05 1 .4 1.95.63 2.92.77 3.13.45 6.5-.9 9.44s-3.7 5.37-6.56 6.83-6.24 1.92-9.4 1.29a14.58 14.58 0 01-8.16-4.82 14.6 14.6 0 01-3.43-8.84c-.11-3.22.88-6.46 2.78-9.06s4.69-4.54 7.78-5.41a14.65 14.65 0 019.47.55c1.17.48 2.29 1.12 3.53 1.35.62.11 1.27.12 1.88-.05s1.17-.52 1.54-1.04c.3-.43.46-.96.55-1.49l.25-1.58z"/>
    <path id="l" d="M54.39-13.43a6.78 6.78 0 01-3.06 1.51 6.85 6.85 0 01-3.42-.17 6.92 6.92 0 01-4.6-4.77c-.61-2.22-.05-4.73 1.45-6.48s3.86-2.72 6.16-2.52c.53.04 1.06.15 1.6.13.82-.02 1.6-.34 2.28-.8s1.24-1.07 1.73-1.73c.99-1.3 1.7-2.8 2.8-4.02 1.1-1.2 2.52-2.06 4.05-2.6s3.16-.74 4.78-.74h.53a6.82 6.82 0 003.03-.76 6.25 6.25 0 002.31-2.1 5.45 5.45 0 00.15-5.96c-.21-.32-.45-.62-.68-.93-1.15-1.6-1.86-3.54-2.02-5.51s.26-4 1.18-5.75 2.35-3.24 4.08-4.22 3.74-1.43 5.72-1.28a9.94 9.94 0 015.45 2.15 9.72 9.72 0 013.23 4.87 9.5 9.5 0 01-.22 5.85 9.3 9.3 0 01-3.65 4.56l-1.07.67c-.97.66-1.75 1.6-2.22 2.68s-.66 2.28-.52 3.45a6.93 6.93 0 001.26 3.25 7.2 7.2 0 002.68 2.24l1.2.54c1.6.76 2.98 2.04 3.79 3.63s1.05 3.46.63 5.19l-.27.93a12.1 12.1 0 00-.48 5.69c.2.94.55 1.85 1.1 2.63s1.3 1.44 2.18 1.84c.4.18.83.31 1.2.53.74.45 1.23 1.25 1.35 2.1s-.12 1.73-.6 2.45-1.17 1.27-1.95 1.63-1.63.55-2.5.6c-1.71.1-3.4-.3-5.1-.6s-3.45-.5-5.1-.04c-1.07.3-2.04.88-2.96 1.5l-2.77 1.85c-.97.55-2.03.97-3.14 1.01-.56.02-1.12-.05-1.64-.24s-1-.5-1.38-.9c-.45-.5-.73-1.12-.87-1.77s-.14-1.32-.09-1.98c.12-1.33.47-2.63.47-3.95 0-1.64-.57-3.27-1.56-4.58a8.18 8.18 0 00-3.96-2.79 8.8 8.8 0 00-4.85-.14 9.53 9.53 0 00-4.24 2.38z"/>
  </defs>
  <use width="100%" height="100%" fill="url(#c)" opacity=".95" transform="matrix(1.0066 0 0 -1.0066 -116.82 .8)" xlink:href="#d"/>
  <use width="100%" height="100%" fill="url(#e)" transform="scale(-.156 .156) rotate(41.53 -404 -290.7)" xlink:href="#f"/>
  <g class="E" paint-order="stroke fill markers" transform="translate(-57.87 -31.26)">
    <circle cx="111.05" cy="30.78" r="6.8" fill="url(#g)" filter="url(#h)" transform="matrix(1.0066 0 0 -1.0066 .81 107.93)"/>
    <circle cx="111.88" cy="49.05" r="6.8" fill="url(#i)" filter="url(#j)" opacity=".73" transform="matrix(1.2577 0 0 -1.2118 -8.14 104.4)"/>
  </g>
  <use width="100%" height="100%" fill="url(#k)" class="D" transform="matrix(.56682 0 0 -.56682 -10.06 11.47)" xlink:href="#l"/>
  <path fill="url(#m)" d="M49.68 23.84a5.05 5.05 0 01-1.23-4.2 5.07 5.07 0 012.57-3.53c1.33-.72 3-.78 4.38-.17s2.44 1.88 2.81 3.33a5.8 5.8 0 01-.1 3.15c-.31 1-.86 1.96-1.52 2.79-.3.4-.65.78-.85 1.24a2.2 2.2 0 00-.14 1.21c.07.42.27.79.56 1.1a2.03 2.03 0 001.05.57c.41.09.82.03 1.21-.13l.46-.28a5.84 5.84 0 013.26-.8 5.77 5.77 0 013.14 1.14 5.72 5.72 0 011.97 2.72 5.66 5.66 0 01.08 3.36 5.52 5.52 0 01-4.97 4 5.45 5.45 0 01-5.39-3.43l-.38-1.1c-.24-.62-.61-1.17-1.11-1.6s-1.1-.71-1.77-.77a2.6 2.6 0 00-1.83.5c-.51.4-.87 1-.9 1.65v.4a2.68 2.68 0 01-.46 1.43c-.27.41-.66.76-1.12.98-.9.45-2 .43-2.92.01a4.4 4.4 0 01-2.1-2.08 6.3 6.3 0 01-.58-2.94c0-.17.03-.35 0-.53a1.9 1.9 0 00-.54-1.1c-.29-.3-.65-.51-1.02-.7-.75-.35-1.59-.55-2.28-1-.51-.33-.94-.8-1.22-1.34a3.59 3.59 0 01-.38-1.77 3.66 3.66 0 01.5-1.73 3.73 3.73 0 014.8-1.47 4.02 4.02 0 012.24 2.72l.14.6a2.5 2.5 0 001.18 1.51c.6.3 1.31.36 1.94.14a2.18 2.18 0 001.05-3.29c-.14-.22-.35-.4-.52-.6z" opacity=".66"/>
  <path fill="url(#n)" d="M67.4 18.86a1.21 1.21 0 00.62-.35 1.21 1.21 0 00.22-1.34 1.2 1.2 0 00-.48-.53 1.21 1.21 0 00-.6-.16 1.21 1.21 0 00-.6.15 1.2 1.2 0 00-.62 1.01l.03.49c0 .08 0 .16-.03.24a.62.62 0 01-.1.22.55.55 0 01-.27.18.84.84 0 01-.32.03c-.22-.01-.42-.1-.63-.15a3.13 3.13 0 00-3.88 3.57 3.16 3.16 0 001 1.79 3.16 3.16 0 001.9.78 3.16 3.16 0 003.19-2.22 3.17 3.17 0 00-.08-2.05c-.1-.25-.23-.5-.27-.77a.9.9 0 01.01-.4.6.6 0 01.23-.33c.1-.06.22-.1.33-.11l.34-.05z"/>
  <use width="100%" height="100%" fill="url(#e)" transform="matrix(-.19415 .09581 .09581 .19415 15.15 3.96)" xlink:href="#f"/>
  <g fill="none" stroke-width=".27" transform="translate(-57.87 -31.26)">
    <use width="100%" height="100%" stroke="url(#o)" class="D" transform="matrix(.5385 .17692 .17692 -.5385 44.85 33.51)" xlink:href="#l"/>
    <use width="100%" height="100%" stroke="url(#o)" class="D" transform="matrix(-.55339 .12269 .12269 .55339 171.66 62)" xlink:href="#l"/>
    <use width="100%" height="100%" stroke="url(#p)" opacity=".79" transform="rotate(14.95 -202.18 39.09) scale(.6087)" xlink:href="#d"/>
  </g>
  <g class="E" transform="translate(-57.87 -31.26)">
    <circle cx="111.88" cy="49.05" r="6.8" fill="url(#i)" filter="url(#q)" opacity=".73" paint-order="stroke fill markers" transform="matrix(.77627 0 0 -.74797 -12.4 79.88)"/>
    <ellipse cx="100.18" cy="-44.85" fill="url(#r)" class="B" paint-order="stroke fill markers" rx="1.85" ry="1.79" transform="scale(1 -1)"/>
    <ellipse cx="78.65" cy="-56.31" fill="url(#s)" class="B" filter="url(#t)" paint-order="stroke fill markers" rx="1.85" ry="1.79" transform="matrix(1 0 0 -1 3.1 12.89)"/>
    <g transform="scale(1 -1)">
      <ellipse cx="126.01" cy="-72.83" fill="url(#u)" class="B" paint-order="stroke fill markers" rx="1.85" ry="1.79"/>
      <ellipse cx="86.19" cy="-67.74" fill="url(#v)" class="B" paint-order="stroke fill markers" rx="1.32" ry="1.27"/>
      <ellipse cx="104.05" cy="-70.48" fill="url(#w)" class="B" paint-order="stroke fill markers" rx="2.76" ry="2.66"/>
    </g>
    <ellipse cx="139.98" cy="40.41" fill="url(#x)" class="B" filter="url(#y)" paint-order="stroke fill markers" rx="2.75" ry="2.65" transform="matrix(1.0066 0 0 -1.0066 .81 107.93)"/>
    <ellipse cx="73.03" cy="34.8" fill="url(#z)" class="B" filter="url(#y)" paint-order="stroke fill markers" rx="2.75" ry="2.65" transform="matrix(1.0516 0 0 -1.0516 -2.2 108.68)"/>
    <path fill="#fff" d="M76.1 50.42v-1.55h-8.32v8.7c0 5.93 2.98 7.83 7.84 10.43l.47.26V66.5l-.06-.03c-4.4-2.38-6.7-3.85-6.7-8.9v-7.15h6.77"/>
  </g>
  <text x="42.25" y="30.68" fill="#fff" font-family="Soleto" font-size="11.12" font-weight="300" letter-spacing="0" transform="scale(1.0002 .9998)" word-spacing="0">
    <tspan x="42.25" y="30.68">HÄLSAN</tspan>
  </text>
  <path fill="#fff" d="M15.85 30.66v-7.9h4.75v1.57h-3.17v1.6h1.58v1.57h-1.58v1.58h3.17v1.6h-4.75m6.33 0v-7.94h1.58v6.33h2.38v1.58zm5.54 0v-7.94h4.75v1.58H29.3v1.6h1.58v1.57H29.3v1.58h3.17v1.6h-4.36m5.94-7.93h1.58l1.58 5.54 1.6-5.54h1.57L38 30.65h-1.57z"/>
</svg>
